<svg xmlns="http://www.w3.org/2000/svg" viewBox="0 0 600 600" role="img" aria-label="Bialetti Moka Express 3 Tazas">
  <defs>
    <linearGradient id="bg" x1="0" y1="0" x2="1" y2="1">
      <stop offset="0" stop-color="#4d5568"/>
      <stop offset="1" stop-color="#14161f"/>
    </linearGradient>
  </defs>
  <rect width="600" height="600" fill="url(#bg)"/>
  <circle cx="300" cy="290" r="215" fill="#ffffff" opacity=".07"/>
  <circle cx="300" cy="290" r="160" fill="#ffffff" opacity=".06"/>
  <g transform="translate(165 155) scale(2.7)" fill="#ffffff" opacity=".94"><path d="M32 8h36l6 32H26z"/><path d="M26 56h48l-6 36H32z"/><rect x="24" y="44" width="52" height="8" rx="4"/><path d="M74 56h10a6 6 0 0 1 6 6v10a6 6 0 0 1-6 6H72l2-8h8v-6h-9z"/><rect x="44" y="16" width="12" height="14" rx="3" fill="#00000030"/></g>
  <text x="300" y="536" text-anchor="middle" font-family="'PT Sans', Arial, sans-serif" font-size="30" font-weight="bold" fill="#ffffff" opacity=".85" letter-spacing="4">BIALETTI</text>
</svg>
