<svg xmlns="http://www.w3.org/2000/svg" viewBox="0 0 600 600" role="img" aria-label="Lindt Lindor Surtido 200 g">
  <defs>
    <linearGradient id="bg" x1="0" y1="0" x2="1" y2="1">
      <stop offset="0" stop-color="#8a3b1e"/>
      <stop offset="1" stop-color="#2e0f06"/>
    </linearGradient>
  </defs>
  <rect width="600" height="600" fill="url(#bg)"/>
  <circle cx="300" cy="290" r="215" fill="#ffffff" opacity=".07"/>
  <circle cx="300" cy="290" r="160" fill="#ffffff" opacity=".06"/>
  <g transform="translate(165 155) scale(2.7)" fill="#ffffff" opacity=".94"><path d="M18 36h64l6 12v34a6 6 0 0 1-6 6H18a6 6 0 0 1-6-6V48z"/><path d="M44 14c6-6 16-4 18 3 2-7 12-9 18-3 5 6 1 16-8 18l-10 4-10-4c-9-2-13-12-8-18z" opacity=".9"/></g>
  <text x="300" y="536" text-anchor="middle" font-family="'PT Sans', Arial, sans-serif" font-size="30" font-weight="bold" fill="#ffffff" opacity=".85" letter-spacing="4">LINDT</text>
</svg>
