<svg xmlns="http://www.w3.org/2000/svg" viewBox="0 0 600 600" role="img" aria-label="Ray-Ban Aviator Classic">
  <defs>
    <linearGradient id="bg" x1="0" y1="0" x2="1" y2="1">
      <stop offset="0" stop-color="#20666a"/>
      <stop offset="1" stop-color="#081f21"/>
    </linearGradient>
  </defs>
  <rect width="600" height="600" fill="url(#bg)"/>
  <circle cx="300" cy="290" r="215" fill="#ffffff" opacity=".07"/>
  <circle cx="300" cy="290" r="160" fill="#ffffff" opacity=".06"/>
  <g transform="translate(165 155) scale(2.7)" fill="#ffffff" opacity=".94"><path d="M6 34h88v8h-6l-4 20a12 12 0 0 1-12 10H62a12 12 0 0 1-12-10l-2-10h-6l-2 10a12 12 0 0 1-12 10H18a12 12 0 0 1-12-10L2 42z" transform="translate(2 6)"/></g>
  <text x="300" y="536" text-anchor="middle" font-family="'PT Sans', Arial, sans-serif" font-size="30" font-weight="bold" fill="#ffffff" opacity=".85" letter-spacing="4">RAY-BAN</text>
</svg>
