<svg xmlns="http://www.w3.org/2000/svg" viewBox="0 0 600 600" role="img" aria-label="Samsonite Neceser de Viaje">
  <defs>
    <linearGradient id="bg" x1="0" y1="0" x2="1" y2="1">
      <stop offset="0" stop-color="#2e6b46"/>
      <stop offset="1" stop-color="#0b2416"/>
    </linearGradient>
  </defs>
  <rect width="600" height="600" fill="url(#bg)"/>
  <circle cx="300" cy="290" r="215" fill="#ffffff" opacity=".07"/>
  <circle cx="300" cy="290" r="160" fill="#ffffff" opacity=".06"/>
  <g transform="translate(165 155) scale(2.7)" fill="#ffffff" opacity=".94"><path d="M14 40h72a8 8 0 0 1 8 8v26a12 12 0 0 1-12 12H18A12 12 0 0 1 6 74V48a8 8 0 0 1 8-8z"/><path d="M6 52h88" stroke="#00000035" stroke-width="4"/><path d="M34 40a16 16 0 0 1 32 0h-8a8 8 0 0 0-16 0z"/></g>
  <text x="300" y="536" text-anchor="middle" font-family="'PT Sans', Arial, sans-serif" font-size="30" font-weight="bold" fill="#ffffff" opacity=".85" letter-spacing="4">SAMSONITE</text>
</svg>
