<svg xmlns="http://www.w3.org/2000/svg" viewBox="0 0 600 600" role="img" aria-label="Samsonite Valija Cabina 55 cm">
  <defs>
    <linearGradient id="bg" x1="0" y1="0" x2="1" y2="1">
      <stop offset="0" stop-color="#2e6b46"/>
      <stop offset="1" stop-color="#0b2416"/>
    </linearGradient>
  </defs>
  <rect width="600" height="600" fill="url(#bg)"/>
  <circle cx="300" cy="290" r="215" fill="#ffffff" opacity=".07"/>
  <circle cx="300" cy="290" r="160" fill="#ffffff" opacity=".06"/>
  <g transform="translate(165 155) scale(2.7)" fill="#ffffff" opacity=".94"><rect x="24" y="22" width="52" height="64" rx="10"/><path d="M38 22v-6a8 8 0 0 1 8-8h8a8 8 0 0 1 8 8v6h-8v-6h-8v6z"/><rect x="34" y="86" width="8" height="10" rx="3"/><rect x="58" y="86" width="8" height="10" rx="3"/><path d="M36 32v44M50 32v44M64 32v44" stroke="#00000030" stroke-width="5"/></g>
  <text x="300" y="536" text-anchor="middle" font-family="'PT Sans', Arial, sans-serif" font-size="30" font-weight="bold" fill="#ffffff" opacity=".85" letter-spacing="4">SAMSONITE</text>
</svg>
