<svg xmlns="http://www.w3.org/2000/svg" viewBox="0 0 600 600" role="img" aria-label="Sony Auriculares WH-CH520">
  <defs>
    <linearGradient id="bg" x1="0" y1="0" x2="1" y2="1">
      <stop offset="0" stop-color="#1d629c"/>
      <stop offset="1" stop-color="#0e1122"/>
    </linearGradient>
  </defs>
  <rect width="600" height="600" fill="url(#bg)"/>
  <circle cx="300" cy="290" r="215" fill="#ffffff" opacity=".07"/>
  <circle cx="300" cy="290" r="160" fill="#ffffff" opacity=".06"/>
  <g transform="translate(165 155) scale(2.7)" fill="#ffffff" opacity=".94"><path d="M50 10a35 35 0 0 0-35 35v28h8V45a27 27 0 0 1 54 0v28h8V45a35 35 0 0 0-35-35z"/><path d="M15 56h10a5 5 0 0 1 5 5v24a5 5 0 0 1-5 5h-2a8 8 0 0 1-8-8z"/><path d="M85 56H75a5 5 0 0 0-5 5v24a5 5 0 0 0 5 5h2a8 8 0 0 0 8-8z"/></g>
  <text x="300" y="536" text-anchor="middle" font-family="'PT Sans', Arial, sans-serif" font-size="30" font-weight="bold" fill="#ffffff" opacity=".85" letter-spacing="4">SONY</text>
</svg>
