<svg xmlns="http://www.w3.org/2000/svg" viewBox="0 0 600 600" role="img" aria-label="SwissGear Mochila Urbana 28 L">
  <defs>
    <linearGradient id="bg" x1="0" y1="0" x2="1" y2="1">
      <stop offset="0" stop-color="#2e6b46"/>
      <stop offset="1" stop-color="#0b2416"/>
    </linearGradient>
  </defs>
  <rect width="600" height="600" fill="url(#bg)"/>
  <circle cx="300" cy="290" r="215" fill="#ffffff" opacity=".07"/>
  <circle cx="300" cy="290" r="160" fill="#ffffff" opacity=".06"/>
  <g transform="translate(165 155) scale(2.7)" fill="#ffffff" opacity=".94"><path d="M30 22a20 20 0 0 1 40 0c8 4 12 12 12 22v40a8 8 0 0 1-8 8H26a8 8 0 0 1-8-8V44c0-10 4-18 12-22z"/><path d="M34 56h32v22a6 6 0 0 1-6 6H40a6 6 0 0 1-6-6z" fill="#00000030"/><path d="M42 14a12 12 0 0 1 16 0" stroke="#00000035" stroke-width="5" fill="none"/></g>
  <text x="300" y="536" text-anchor="middle" font-family="'PT Sans', Arial, sans-serif" font-size="30" font-weight="bold" fill="#ffffff" opacity=".85" letter-spacing="4">SWISSGEAR</text>
</svg>
