<svg xmlns="http://www.w3.org/2000/svg" viewBox="0 0 600 600" role="img" aria-label="Twinings English Breakfast x100">
  <defs>
    <linearGradient id="bg" x1="0" y1="0" x2="1" y2="1">
      <stop offset="0" stop-color="#8a3b1e"/>
      <stop offset="1" stop-color="#2e0f06"/>
    </linearGradient>
  </defs>
  <rect width="600" height="600" fill="url(#bg)"/>
  <circle cx="300" cy="290" r="215" fill="#ffffff" opacity=".07"/>
  <circle cx="300" cy="290" r="160" fill="#ffffff" opacity=".06"/>
  <g transform="translate(165 155) scale(2.7)" fill="#ffffff" opacity=".94"><path d="M16 34h54v24a24 24 0 0 1-24 24h-6a24 24 0 0 1-24-24z"/><path d="M70 40h8a12 12 0 0 1 0 24h-8v-8h8a4 4 0 0 0 0-8h-8z"/><rect x="16" y="88" width="54" height="6" rx="3"/></g>
  <text x="300" y="536" text-anchor="middle" font-family="'PT Sans', Arial, sans-serif" font-size="30" font-weight="bold" fill="#ffffff" opacity=".85" letter-spacing="4">TWININGS</text>
</svg>
