<svg xmlns="http://www.w3.org/2000/svg" viewBox="0 0 600 600" role="img" aria-label="Victorinox Set Cuchillos Swiss Classic">
  <defs>
    <linearGradient id="bg" x1="0" y1="0" x2="1" y2="1">
      <stop offset="0" stop-color="#4d5568"/>
      <stop offset="1" stop-color="#14161f"/>
    </linearGradient>
  </defs>
  <rect width="600" height="600" fill="url(#bg)"/>
  <circle cx="300" cy="290" r="215" fill="#ffffff" opacity=".07"/>
  <circle cx="300" cy="290" r="160" fill="#ffffff" opacity=".06"/>
  <g transform="translate(165 155) scale(2.7)" fill="#ffffff" opacity=".94"><path d="M14 20h44c20 0 26 8 26 12s-6 12-26 12H14a6 6 0 0 1-6-6v-12a6 6 0 0 1 6-6z"/><rect x="30" y="52" width="12" height="44" rx="5" transform="rotate(24 36 74)"/><rect x="56" y="52" width="12" height="44" rx="5" transform="rotate(-24 62 74)"/></g>
  <text x="300" y="536" text-anchor="middle" font-family="'PT Sans', Arial, sans-serif" font-size="30" font-weight="bold" fill="#ffffff" opacity=".85" letter-spacing="4">VICTORINOX</text>
</svg>
