<svg xmlns="http://www.w3.org/2000/svg" viewBox="0 0 600 600" role="img" aria-label="Xiaomi Redmi Buds True Wireless">
  <defs>
    <linearGradient id="bg" x1="0" y1="0" x2="1" y2="1">
      <stop offset="0" stop-color="#1d629c"/>
      <stop offset="1" stop-color="#0e1122"/>
    </linearGradient>
  </defs>
  <rect width="600" height="600" fill="url(#bg)"/>
  <circle cx="300" cy="290" r="215" fill="#ffffff" opacity=".07"/>
  <circle cx="300" cy="290" r="160" fill="#ffffff" opacity=".06"/>
  <g transform="translate(165 155) scale(2.7)" fill="#ffffff" opacity=".94"><path d="M31 14a15 15 0 0 1 15 15c0 7-4 10-8 12v37a7 7 0 0 1-14 0V41c-4-2-8-5-8-12a15 15 0 0 1 15-15z"/><path d="M69 14a15 15 0 0 1 15 15c0 7-4 10-8 12v37a7 7 0 0 1-14 0V41c-4-2-8-5-8-12a15 15 0 0 1 15-15z"/></g>
  <text x="300" y="536" text-anchor="middle" font-family="'PT Sans', Arial, sans-serif" font-size="30" font-weight="bold" fill="#ffffff" opacity=".85" letter-spacing="4">XIAOMI</text>
</svg>
