<svg xmlns="http://www.w3.org/2000/svg" viewBox="0 0 600 400" role="img" aria-label="Electrónica">
  <defs>
    <linearGradient id="bg" x1="0" y1="0" x2="1" y2="1">
      <stop offset="0" stop-color="#1d629c"/>
      <stop offset="1" stop-color="#0e1122"/>
    </linearGradient>
  </defs>
  <rect width="600" height="400" fill="url(#bg)"/>
  <circle cx="470" cy="200" r="190" fill="#ffffff" opacity=".06"/>
  <g transform="translate(360 90) scale(2.2)" fill="#ffffff" opacity=".9"><path d="M50 10a35 35 0 0 0-35 35v28h8V45a27 27 0 0 1 54 0v28h8V45a35 35 0 0 0-35-35z"/><path d="M15 56h10a5 5 0 0 1 5 5v24a5 5 0 0 1-5 5h-2a8 8 0 0 1-8-8z"/><path d="M85 56H75a5 5 0 0 0-5 5v24a5 5 0 0 0 5 5h2a8 8 0 0 0 8-8z"/></g>
</svg>
